<?xml version="1.0" encoding="UTF-8"?>
<svg version="1.1" xmlns="http://www.w3.org/2000/svg" width="1024" height="1024">
<path d="M0 0 C337.92 0 675.84 0 1024 0 C1024 337.92 1024 675.84 1024 1024 C686.08 1024 348.16 1024 0 1024 C0 686.08 0 348.16 0 0 Z " fill="#FEFEFE" transform="translate(0,0)"/>
<path d="M0 0 C1.78540039 1.29736328 1.78540039 1.29736328 3.66015625 3.0078125 C4.70719727 3.95926147 4.70719727 3.95926147 5.77539062 4.92993164 C6.50951172 5.6130542 7.24363281 6.29617676 8 7 C8.74443359 7.68376709 9.48886719 8.36753418 10.25585938 9.07202148 C12.55285993 11.20786786 14.81000107 13.379846 17.0625 15.5625 C17.84560547 16.29146484 18.62871094 17.02042969 19.43554688 17.77148438 C20.16966797 18.48755859 20.90378906 19.20363281 21.66015625 19.94140625 C22.32668213 20.57763916 22.99320801 21.21387207 23.67993164 21.86938477 C25 24 25 24 24.87171936 26.81343079 C23.79862712 30.73611834 22.28105387 32.29463521 19.37255859 35.11572266 C18.65304268 35.82428658 18.65304268 35.82428658 17.91899109 36.54716492 C16.88120653 37.56599384 15.83768759 38.57900796 14.78910446 39.58671951 C13.13068549 41.18112935 11.48856852 42.79081869 9.84976196 44.40536499 C6.37195183 47.82614812 2.87493349 51.22687492 -0.625 54.625 C-4.68794949 58.57002198 -8.74265134 62.52281592 -12.77689743 66.49720383 C-14.39744427 68.08527727 -16.03227885 69.65759768 -17.66812134 71.22988892 C-18.65659326 72.20020517 -19.64437391 73.1712263 -20.63134766 74.14306641 C-21.5010318 74.98656647 -22.37071594 75.83006653 -23.26675415 76.6991272 C-25.21494913 78.7973861 -25.21494913 78.7973861 -24.97421265 81.08407593 C-23.83513571 83.32422846 -22.58347569 84.75677966 -20.78125 86.51171875 C-20.10384766 87.17921143 -19.42644531 87.8467041 -18.72851562 88.53442383 C-17.99310547 89.24493896 -17.25769531 89.9554541 -16.5 90.6875 C-15.74912109 91.42701904 -14.99824219 92.16653809 -14.22460938 92.9284668 C-11.82344951 95.29295059 -9.41295655 97.64755948 -7 100 C-3.82477383 103.09559271 -0.65946604 106.20083275 2.5 109.3125 C3.23541016 110.02301514 3.97082031 110.73353027 4.72851562 111.46557617 C5.40591797 112.13306885 6.08332031 112.80056152 6.78125 113.48828125 C7.38001953 114.07134033 7.97878906 114.65439941 8.59570312 115.25512695 C10.16095318 117.19998825 10.69990559 118.53206176 11 121 C9.90039062 122.7890625 9.90039062 122.7890625 8.15625 124.625 C7.5065625 125.31980469 6.856875 126.01460937 6.1875 126.73046875 C5.465625 127.47941406 4.74375 128.22835937 4 129 C3.2575 129.80050781 2.515 130.60101562 1.75 131.42578125 C-0.6355153 133.98225848 -3.06246352 136.49314969 -5.5 139 C-6.31597656 139.87011719 -7.13195312 140.74023438 -7.97265625 141.63671875 C-13.89550102 147.69266115 -13.89550102 147.69266115 -18.59375 149 C-28.0364609 146.22782799 -35.69538853 135.45113991 -42.55859375 128.57421875 C-43.7553118 127.37817547 -44.95217816 126.18228057 -46.14918518 124.98652649 C-48.64104063 122.49613645 -51.13110043 120.00396881 -53.61987305 117.51049805 C-56.81318977 114.31144734 -60.01102568 111.11695746 -63.21018887 107.92375469 C-65.67488564 105.46266317 -68.13720609 102.9992053 -70.59880257 100.5350132 C-71.77785882 99.3552895 -72.95765937 98.17630919 -74.1382122 96.99808311 C-75.78003439 95.35879085 -77.41863361 93.71634447 -79.05639648 92.07299805 C-79.98935043 91.1392485 -80.92230438 90.20549896 -81.88352966 89.24345398 C-84.42442963 86.55010551 -84.91355576 85.54027649 -85.5 81.875 C-84.78310498 76.3190636 -81.88613623 73.8335193 -78 70 C-77.01580078 69.01386719 -77.01580078 69.01386719 -76.01171875 68.0078125 C-74.81185849 66.81043643 -73.60312036 65.6218425 -72.3828125 64.4453125 C-70.89145515 63.02890223 -70.89145515 63.02890223 -70 61 C-69.34 61 -68.68 61 -68 61 C-67.77306458 60.4484021 -67.54612915 59.8968042 -67.31231689 59.32849121 C-65.60862315 56.30556594 -63.45562258 54.20108018 -61.00292969 51.74414062 C-60.49533615 51.23304245 -59.98774261 50.72194427 -59.46476746 50.19535828 C-57.78879265 48.5105964 -56.10562496 46.8332388 -54.421875 45.15625 C-53.25054152 43.98356859 -52.07950501 42.81059047 -50.90875244 41.6373291 C-48.4539647 39.17959383 -45.99559934 36.72550895 -43.53466797 34.27392578 C-40.38960355 31.14023041 -37.25356953 27.99767612 -34.12018967 24.85230255 C-31.70279853 22.42766132 -29.28063527 20.00783238 -26.85703278 17.58940125 C-25.69940859 16.43310616 -24.54325422 15.27533754 -23.38863373 14.11604309 C-21.76878071 12.49107586 -20.14259198 10.87271601 -18.51464844 9.25585938 C-17.1313736 7.87497131 -17.1313736 7.87497131 -15.72015381 6.46618652 C-10.74553974 1.95602753 -6.91303016 -1.31109193 0 0 Z " fill="#013CA2" transform="translate(213,430)"/>
<path d="M0 0 C7.5086824 5.69583852 12.1753903 12.72746173 14.5078125 21.90234375 C16.17196637 34.25733452 14.41525219 45.99927942 6.9453125 56.21484375 C-0.73577605 65.07873443 -10.66307893 70.33571102 -22.32421875 71.1796875 C-35.20861646 71.63102262 -45.26770516 69.06358974 -55.4921875 60.90234375 C-64.67644635 51.45655659 -68.76035049 42.16208088 -68.81347656 29.11962891 C-68.63564468 18.51460077 -63.97492494 10.4257422 -56.7421875 2.83984375 C-40.25132902 -13.07398654 -18.43122741 -12.41876149 0 0 Z " fill="#04235C" transform="translate(461.4921875,484.09765625)"/>
<path d="M0 0 C4.28260115 -0.07552747 8.56482478 -0.12923302 12.84790039 -0.16479492 C14.29751354 -0.17965701 15.74708365 -0.19995267 17.1965332 -0.22631836 C33.88578443 -0.5217546 51.45443976 0.8697785 64.08984375 12.92578125 C70.72228864 20.12788398 72.38861467 28.86827818 72.3125 38.375 C72.30686035 39.11741943 72.3012207 39.85983887 72.29541016 40.62475586 C72.07913278 50.44182134 69.66585899 57.6797302 63 65 C62.43539062 65.63035156 61.87078125 66.26070312 61.2890625 66.91015625 C52.65444022 75.49012902 39.75298078 77.13270481 28.046875 77.203125 C27.3054425 77.20882507 26.56401001 77.21452515 25.80010986 77.22039795 C24.24370734 77.22979191 22.68728543 77.23635946 21.13085938 77.24023438 C18.74314665 77.25002811 16.3562644 77.28113692 13.96875 77.3125 C12.45313009 77.31902267 10.93750406 77.32427602 9.421875 77.328125 C8.3500296 77.3466452 8.3500296 77.3466452 7.25653076 77.36553955 C5.25292969 77.35644531 5.25292969 77.35644531 2 77 C-0.04127863 73.93808206 -0.27215698 73.16037517 -0.4140625 69.6796875 C-0.47231201 68.31734985 -0.47231201 68.31734985 -0.53173828 66.92749023 C-0.56251465 65.92016846 -0.59329102 64.91284668 -0.625 63.875 C-0.66222168 62.81418213 -0.69944336 61.75336426 -0.73779297 60.66040039 C-1.07220178 49.58869495 -1.10615376 38.51346037 -1.125 27.4375 C-1.12767883 26.53505554 -1.13035767 25.63261108 -1.13311768 24.70281982 C-1.13899116 22.09220409 -1.13723602 19.48171035 -1.1328125 16.87109375 C-1.13478638 16.09480118 -1.13676025 15.31850861 -1.13879395 14.51869202 C-1.11817789 9.59784632 -0.69535362 4.87265422 0 0 Z " fill="#04235C" transform="translate(489,477)"/>
<path d="M0 0 C6.10371659 1.40712577 8.40982585 5.33351428 11.6015625 10.30859375 C11.97619629 10.91364746 12.35083008 11.51870117 12.73681641 12.14208984 C14.43088624 14.77167983 16.41472017 17.12381225 18.42578125 19.515625 C19.15667969 20.4025 19.88757813 21.289375 20.640625 22.203125 C21.37410156 23.09 22.10757813 23.976875 22.86328125 24.890625 C24.40650008 26.7643477 25.94816993 28.63934724 27.48828125 30.515625 C28.49761719 31.74152344 28.49761719 31.74152344 29.52734375 32.9921875 C32.69135864 36.91810564 35.77729562 40.90323839 38.86328125 44.890625 C38.8475708 43.0511731 38.8475708 43.0511731 38.83154297 41.17456055 C38.79537021 36.62918003 38.77239068 32.08381227 38.75341797 27.53833008 C38.74335418 25.57020936 38.72970191 23.60210362 38.71240234 21.6340332 C38.68817066 18.80676582 38.67680202 15.97969595 38.66796875 13.15234375 C38.65764618 12.27100266 38.64732361 11.38966156 38.63668823 10.48161316 C38.63646164 9.2506768 38.63646164 9.2506768 38.63623047 7.99487305 C38.63178925 7.27317429 38.62734802 6.55147552 38.62277222 5.8079071 C38.86328125 3.890625 38.86328125 3.890625 40.86328125 0.890625 C43.63519227 0.64212924 46.16215513 0.56379091 48.92578125 0.640625 C50.04436523 0.64835937 50.04436523 0.64835937 51.18554688 0.65625 C56.70917699 0.73652074 56.70917699 0.73652074 57.86328125 1.890625 C58.41295122 7.26853818 58.63664878 12.68025035 58.92578125 18.078125 C58.9706366 18.89042572 59.01549194 19.70272644 59.06170654 20.53964233 C60.07884332 39.3226609 60.06899578 58.08673493 59.86328125 76.890625 C55.57139651 78.40328041 52.36450241 79.15200199 47.80078125 78.828125 C46.79917969 78.77527344 45.79757812 78.72242188 44.765625 78.66796875 C38.47379319 76.98280787 34.81175728 70.40075297 31.05078125 65.390625 C29.91150018 63.88668705 28.7721751 62.38278244 27.6328125 60.87890625 C27.02904785 60.0792041 26.4252832 59.27950195 25.80322266 58.45556641 C22.29617896 53.81864203 18.76470685 49.20031443 15.23828125 44.578125 C13.89162007 42.8114319 12.54524663 41.0445194 11.19921875 39.27734375 C10.6273584 38.52670654 10.05549805 37.77606934 9.46630859 37.00268555 C7.92428737 34.97100331 6.391465 32.93272914 4.86328125 30.890625 C4.05285253 33.73205799 3.7445778 36.23340747 3.765625 39.18432617 C3.77057983 40.44033882 3.77057983 40.44033882 3.77563477 41.72172546 C3.78393311 42.616642 3.79223145 43.51155853 3.80078125 44.43359375 C3.80456787 45.35779617 3.80835449 46.2819986 3.81225586 47.23420715 C3.82446382 50.18222729 3.84310444 53.13014927 3.86328125 56.078125 C3.88975851 59.96744507 3.90979615 63.85671805 3.92578125 67.74609375 C3.93407959 68.64708298 3.94237793 69.5480722 3.95092773 70.47636414 C3.95945933 72.61463367 3.91673173 74.7530066 3.86328125 76.890625 C1.98693866 78.76696759 -0.67754375 78.02308691 -3.16992188 78.02734375 C-4.36004883 78.02154297 -4.36004883 78.02154297 -5.57421875 78.015625 C-6.36376953 78.01949219 -7.15332031 78.02335938 -7.96679688 78.02734375 C-13.88345742 78.01725567 -13.88345742 78.01725567 -16.13671875 76.890625 C-16.18797893 69.08425748 -16.2226841 61.27793432 -16.24658203 53.47143555 C-16.25541578 50.82291607 -16.27014408 48.17462134 -16.28759766 45.52612305 C-16.50117362 12.2522444 -16.50117362 12.2522444 -14.13671875 2.890625 C-9.72093096 -0.05323353 -5.21201891 -0.24780497 0 0 Z " fill="#04245D" transform="translate(710.13671875,476.109375)"/>
<path d="M0 0 C0.75732422 0.00966797 1.51464844 0.01933594 2.29492188 0.02929688 C3.47344727 0.06700195 3.47344727 0.06700195 4.67578125 0.10546875 C5.47306641 0.11900391 6.27035156 0.13253906 7.09179688 0.14648438 C9.05758092 0.18179786 11.02301707 0.23560428 12.98828125 0.29296875 C24.06833406 22.77145659 35.11365734 45.25146143 44.98828125 68.29296875 C45.55663696 69.5756665 45.55663696 69.5756665 46.13647461 70.88427734 C46.98828125 73.29296875 46.98828125 73.29296875 46.98828125 77.29296875 C43.88442914 77.40910079 40.78113463 77.48018904 37.67578125 77.54296875 C36.79470703 77.57648438 35.91363281 77.61 35.00585938 77.64453125 C33.73452148 77.66386719 33.73452148 77.66386719 32.4375 77.68359375 C31.26707153 77.71501465 31.26707153 77.71501465 30.07299805 77.74707031 C27.98828125 77.29296875 27.98828125 77.29296875 24.98828125 73.29296875 C23.66828125 69.66296875 22.34828125 66.03296875 20.98828125 62.29296875 C9.76828125 62.29296875 -1.45171875 62.29296875 -13.01171875 62.29296875 C-15.32171875 66.91296875 -17.63171875 71.53296875 -20.01171875 76.29296875 C-21.92983308 78.21108308 -25.27761166 77.46735543 -27.82421875 77.48046875 C-29.06816406 77.49464844 -30.31210937 77.50882813 -31.59375 77.5234375 C-34.73695869 77.31149543 -36.39943039 76.95772682 -39.01171875 75.29296875 C-37.49232614 70.30403528 -35.41225729 65.77723351 -33.13671875 61.10546875 C-29.28308003 53.08476416 -25.61250691 44.99261979 -22.01171875 36.85546875 C-21.50471436 35.71182861 -20.99770996 34.56818848 -20.4753418 33.38989258 C-18.09088125 28.00640403 -15.71598785 22.61887719 -13.3515625 17.2265625 C-12.55097434 15.41527922 -11.75020483 13.60407609 -10.94921875 11.79296875 C-10.59150391 10.96869385 -10.23378906 10.14441895 -9.86523438 9.29516602 C-9.3634668 8.16485962 -9.3634668 8.16485962 -8.8515625 7.01171875 C-8.56659912 6.36138672 -8.28163574 5.71105469 -7.98803711 5.04101562 C-5.95542357 1.40172756 -4.22099418 -0.0952104 0 0 Z " fill="#04235C" transform="translate(641.01171875,476.70703125)"/>
<path d="M0 0 C1.18613892 0.00785522 1.18613892 0.00785522 2.39624023 0.01586914 C3.16524658 0.0183667 3.93425293 0.02086426 4.7265625 0.0234375 C5.70939209 0.0325415 6.69222168 0.04164551 7.70483398 0.05102539 C12.37639648 0.08196289 12.37639648 0.08196289 17.14233398 0.11352539 C16.81233398 9.68352539 16.48233398 19.25352539 16.14233398 29.11352539 C16.80233398 29.11352539 17.46233398 29.11352539 18.14233398 29.11352539 C18.37525146 28.56986328 18.60816895 28.02620117 18.84814453 27.46606445 C21.88306813 21.94927068 26.63894144 17.41374122 30.95483398 12.86352539 C31.48423584 12.30528076 32.0136377 11.74703613 32.55908203 11.171875 C38.81121003 4.72946075 43.91253285 -0.24192821 53.33642578 -0.56518555 C57.38823961 -0.30712171 61.1778216 0.2215101 65.14233398 1.11352539 C63.79991595 4.08024893 62.2991643 6.23286413 60.05249023 8.58227539 C59.43768799 9.23067383 58.82288574 9.87907227 58.18945312 10.54711914 C57.20706665 11.56999023 57.20706665 11.56999023 56.20483398 12.61352539 C54.8501038 14.04007378 53.49594264 15.46716277 52.14233398 16.89477539 C51.13299805 17.95631836 51.13299805 17.95631836 50.10327148 19.03930664 C47.27148526 22.03468211 44.48362702 25.06904033 41.70483398 28.11352539 C40.81924805 29.08290039 39.93366211 30.05227539 39.02124023 31.05102539 C38.40120117 31.73165039 37.78116211 32.41227539 37.14233398 33.11352539 C42.21484339 40.15867735 47.83337251 46.67054199 53.51049805 53.22729492 C56.22925043 56.36988633 58.93602165 59.52272201 61.64233398 62.67602539 C62.13427246 63.24724121 62.62621094 63.81845703 63.13305664 64.40698242 C64.0522185 65.47706565 64.9682622 66.5498381 65.88061523 67.62573242 C67.0744239 69.0334472 68.27991851 70.43122746 69.48608398 71.82836914 C71.14233398 74.11352539 71.14233398 74.11352539 71.14233398 77.11352539 C52.24125335 79.63270056 52.24125335 79.63270056 45.9543457 75.76879883 C42.09615984 72.16456176 39.32222234 67.82119172 36.56860352 63.34692383 C34.25552301 59.72486623 31.53364276 56.44752557 28.82983398 53.11352539 C27.91442342 51.94893697 27.00138432 50.78247756 26.09155273 49.61352539 C25.44831055 48.78852539 24.80506836 47.96352539 24.14233398 47.11352539 C21.38081857 48.68998104 19.94911392 49.57172925 18.14233398 52.11352539 C17.37256328 56.39888599 17.57783669 60.5894528 17.76733398 64.92602539 C17.7944043 66.09584961 17.82147461 67.26567383 17.84936523 68.47094727 C17.91996294 71.35368674 18.01852825 74.2326611 18.14233398 77.11352539 C15.16310805 77.14036526 12.18412104 77.16028576 9.20483398 77.17602539 C8.35469727 77.1844043 7.50456055 77.1927832 6.62866211 77.20141602 C5.81977539 77.20463867 5.01088867 77.20786133 4.17749023 77.21118164 C3.42862549 77.21641846 2.67976074 77.22165527 1.90820312 77.22705078 C0.14233398 77.11352539 0.14233398 77.11352539 -0.85766602 76.11352539 C-1.00939103 74.68258751 -1.09570668 73.24463072 -1.15478516 71.80688477 C-1.19475113 70.88661499 -1.2347171 69.96634521 -1.27589417 69.01818848 C-1.31448044 68.00808716 -1.35306671 66.99798584 -1.39282227 65.95727539 C-1.43579941 64.90817993 -1.47877655 63.85908447 -1.52305603 62.77819824 C-1.61360602 60.53525065 -1.70170481 58.29220303 -1.78759766 56.04907227 C-1.91641065 52.71084675 -2.0553208 49.37316289 -2.19555664 46.03540039 C-2.65404064 34.6965804 -2.94968833 23.3683631 -2.97875977 12.01977539 C-2.98359879 10.9383728 -2.98843781 9.85697021 -2.99342346 8.74279785 C-2.99172653 7.7546106 -2.9900296 6.76642334 -2.98828125 5.74829102 C-2.98755112 4.87483032 -2.98682098 4.00136963 -2.98606873 3.10144043 C-2.81762162 0.49356295 -2.61388956 0.1597396 0 0 Z " fill="#03235D" transform="translate(324.857666015625,476.886474609375)"/>
<path d="M0 0 C1.83789602 1.58595971 3.39020105 3.17556118 5 5 C3.53657956 8.52942577 1.65907491 10.44023431 -1.3125 12.8125 C-2.07175781 13.43769531 -2.83101562 14.06289063 -3.61328125 14.70703125 C-6 16 -6 16 -8.5078125 15.85546875 C-11.08139295 14.97206104 -13.22929828 13.89586329 -15.5625 12.5 C-21.21053583 9.13271348 -26.45607741 8.10301373 -33 9 C-40.44313471 11.56202856 -44.94158292 15.14759976 -49.10546875 21.75390625 C-50.33890257 24.85095624 -50.30177376 27.54986445 -50.3125 30.875 C-50.32925781 32.06867187 -50.34601562 33.26234375 -50.36328125 34.4921875 C-49.82306314 39.70848711 -47.89194376 43.71886014 -43.9375 47.1875 C-38.77857694 51.32334549 -32.50932486 53.45886148 -25.875 52.9375 C-19.0162723 51.2781304 -13.81415106 47.92825787 -8 44 C-5.99092002 45.42608802 -3.99330486 46.86466032 -2 48.3125 C-1.42765625 48.71662109 -0.8553125 49.12074219 -0.265625 49.53710938 C1.21208644 50.61900525 2.61254109 51.80455549 4 53 C4 56.51234417 3.60014195 56.87842441 1.25 59.3125 C-8.38398086 68.53610845 -20.48087312 71.54334953 -33.40625 71.30859375 C-43.13617692 70.47308916 -51.72874159 66.53126308 -59 60 C-59 59.34 -59 58.68 -59 58 C-59.66 58 -60.32 58 -61 58 C-62.65625 55.8046875 -62.65625 55.8046875 -64.5 52.875 C-65.1084375 51.92367187 -65.716875 50.97234375 -66.34375 49.9921875 C-71.55211012 40.58274445 -71.53758461 28.79970669 -69.1953125 18.44140625 C-64.7854612 6.74769711 -55.88056175 -1.28164093 -45.06640625 -7.02734375 C-30.32757045 -13.26190002 -12.47480425 -8.83171982 0 0 Z " fill="#04235C" transform="translate(887,484)"/>
<path d="M0 0 C2.21073145 1.61237193 3.91591255 3.07240067 5.80078125 5.00390625 C6.32262497 5.52000961 6.84446869 6.03611298 7.38212585 6.56785583 C8.47934271 7.66099937 9.56905724 8.76171864 10.65161133 9.86938477 C12.30414023 11.55397802 13.98613967 13.20423408 15.67382812 14.85351562 C16.73890758 15.92256137 17.80212351 16.99346763 18.86328125 18.06640625 C19.61476189 18.79966881 19.61476189 18.79966881 20.38142395 19.54774475 C23.86705645 23.17636116 24.81200772 26.00751048 25 31 C24.09375 32.90625 24.09375 32.90625 22.5 34.5 C21.86320312 35.15613281 21.22640625 35.81226563 20.5703125 36.48828125 C19.72210938 37.31714844 18.87390625 38.14601563 18 39 C16.78748047 40.22108736 15.57669237 41.44389526 14.3671875 42.66796875 C11.15787341 45.90573981 7.92784989 49.12168856 4.68774414 52.32861328 C1.64488013 55.34198621 -1.3807904 58.37166947 -4.38671875 61.421875 C-5.14597656 62.19015625 -5.90523438 62.9584375 -6.6875 63.75 C-7.83798828 64.91789063 -7.83798828 64.91789063 -9.01171875 66.109375 C-11.40088534 68.38119549 -12.47831322 68.9257118 -15.74658203 69.39111328 C-20.08868329 68.86912272 -22.12156769 66.74436231 -25.0546875 63.7421875 C-25.60109894 63.20151642 -26.14751038 62.66084534 -26.71047974 62.10379028 C-27.85897086 60.95937277 -28.9999569 59.80738009 -30.13378906 58.6484375 C-31.86965712 56.88044176 -33.63520325 55.14673657 -35.40625 53.4140625 C-36.52015799 52.2961895 -37.63220321 51.1764566 -38.7421875 50.0546875 C-39.27020966 49.53881073 -39.79823181 49.02293396 -40.34225464 48.49142456 C-42.70291365 46.03797367 -43.94046924 44.49822063 -44.34954834 41.07458496 C-43.93591877 37.43634928 -43.15459889 36.39674314 -40.60693359 33.83056641 C-39.86551117 33.07023102 -39.12408875 32.30989563 -38.36019897 31.52651978 C-37.54781769 30.72628387 -36.7354364 29.92604797 -35.8984375 29.1015625 C-34.654608 27.84912247 -34.654608 27.84912247 -33.38565063 26.57138062 C-31.62922078 24.81086954 -29.86519792 23.05790606 -28.09423828 21.31201172 C-25.38495988 18.63484185 -22.70913886 15.92721595 -20.03515625 13.21484375 C-18.32483717 11.50848953 -16.61265778 9.8039975 -14.8984375 8.1015625 C-13.69808365 6.88299057 -13.69808365 6.88299057 -12.47348022 5.63980103 C-11.71314484 4.8983786 -10.95280945 4.15695618 -10.16943359 3.39306641 C-9.50769135 2.73609772 -8.8459491 2.07912903 -8.16415405 1.4022522 C-5.26967298 -0.47321154 -3.38563008 -0.39766493 0 0 Z " fill="#FCCE04" transform="translate(264,482)"/>
<path d="M0 0 C5.96505384 3.58658301 9.97251894 8.80461 12.08984375 15.41015625 C13.81889649 22.82650642 12.16793752 28.86854262 8.5625 35.4375 C4.76837602 40.81167031 0.47930963 43.51966408 -5.89453125 45.0625 C-12.80200328 46.08111339 -18.37675563 44.67594366 -24.35546875 41.10546875 C-28.53607655 37.75627638 -31.07006337 33.17237326 -33.4375 28.4375 C-34.09782797 20.79501559 -34.39130927 13.64941956 -29.4375 7.4375 C-21.32358697 -0.91074987 -11.54003256 -5.23327058 0 0 Z " fill="#FBFCFD" transform="translate(445.4375,493.5625)"/>
<path d="M0 0 C1.68503699 1.68503699 1.11965983 3.76259884 1.12442017 6.01094055 C1.12082489 6.72735214 1.11722961 7.44376373 1.11352539 8.18188477 C1.11367142 8.93305573 1.11381744 9.68422668 1.1139679 10.4581604 C1.11326863 12.95260459 1.10547564 15.44697503 1.09765625 17.94140625 C1.09579212 19.66633564 1.09436819 21.39126557 1.09336853 23.11619568 C1.08954297 27.66512503 1.07971238 32.21402267 1.06866455 36.76293945 C1.05845124 41.40120006 1.05387108 46.03946577 1.04882812 50.67773438 C1.03809014 59.78517022 1.02101327 68.89258248 1 78 C-1.81256281 78.02684312 -4.62487241 78.04676188 -7.4375 78.0625 C-8.23994141 78.07087891 -9.04238281 78.07925781 -9.86914062 78.08789062 C-11.91295221 78.0965143 -13.95683902 78.0522815 -16 78 C-17.91057539 76.08942461 -17.19520147 72.65957943 -17.23706055 70.12524414 C-17.25672882 69.04719765 -17.25672882 69.04719765 -17.27679443 67.94737244 C-17.31874051 65.56002224 -17.3531567 63.17263813 -17.38671875 60.78515625 C-17.41235943 59.13227624 -17.43814348 57.47939845 -17.46406555 55.82652283 C-17.5171107 52.35712781 -17.56602705 48.8877012 -17.61254883 45.41821289 C-17.67293627 40.96448648 -17.74714702 36.51110843 -17.82492352 32.05765629 C-17.88242625 28.64261914 -17.93077036 25.22749756 -17.976511 21.81228447 C-17.9999723 20.16993672 -18.02674226 18.52763288 -18.05682945 16.88539314 C-18.0978418 14.591658 -18.12611152 12.298108 -18.15112305 10.00415039 C-18.17031296 8.69700577 -18.18950287 7.38986115 -18.20927429 6.04310608 C-18 3 -18 3 -16 1 C-10.74810647 -0.07181501 -5.35106114 -0.39042077 0 0 Z " fill="#02215A" transform="translate(803,476)"/>
<path d="M0 0 C5.61 0 11.22 0 17 0 C18.65888739 1.65888739 18.12562525 3.65684782 18.13552856 5.87290955 C18.13350433 6.56904861 18.1314801 7.26518768 18.12939453 7.98242188 C18.13114685 8.7124794 18.13289917 9.44253693 18.13470459 10.19471741 C18.13912299 12.61941878 18.13618517 15.04404782 18.1328125 17.46875 C18.13348554 19.14644383 18.13445557 20.82413756 18.13571167 22.50183105 C18.13718863 26.02255174 18.13503416 29.5432471 18.13037109 33.06396484 C18.1246738 37.58710496 18.12795282 42.11018574 18.13394356 46.63332367 C18.13754923 50.09902395 18.13641056 53.56471007 18.13381577 57.03041077 C18.13314651 58.69865425 18.13397486 60.36689899 18.13629532 62.03514099 C18.13882195 64.36265494 18.13498113 66.69007148 18.12939453 69.01757812 C18.13141876 69.71371719 18.13344299 70.40985626 18.13552856 71.12709045 C18.11426274 75.88573726 18.11426274 75.88573726 17 77 C11.39 77 5.78 77 0 77 C0 51.59 0 26.18 0 0 Z " fill="#022560" transform="translate(575,477)"/>
<path d="M0 0 C21.66129032 0 21.66129032 0 29.53515625 7.453125 C34.19583446 12.83396631 35.34472463 16.85003149 35.3125 23.875 C35.32861328 24.56980469 35.34472656 25.26460937 35.36132812 25.98046875 C35.36581414 30.74461939 34.50040059 33.95858513 32 38 C22.87942508 46.64054466 12.23944649 45 0 45 C0 30.15 0 15.3 0 0 Z " fill="#FBFDFD" transform="translate(507,492)"/>
<path d="M0 0 C5.61 0 11.22 0 17 0 C18.65888739 1.65888739 18.12562525 3.65684782 18.13552856 5.87290955 C18.13350433 6.56904861 18.1314801 7.26518768 18.12939453 7.98242188 C18.13114685 8.7124794 18.13289917 9.44253693 18.13470459 10.19471741 C18.13912299 12.61941878 18.13618517 15.04404782 18.1328125 17.46875 C18.13348554 19.14644383 18.13445557 20.82413756 18.13571167 22.50183105 C18.13718863 26.02255174 18.13503416 29.5432471 18.13037109 33.06396484 C18.1246738 37.58710496 18.12795282 42.11018574 18.13394356 46.63332367 C18.13754923 50.09902395 18.13641056 53.56471007 18.13381577 57.03041077 C18.13314651 58.69865425 18.13397486 60.36689899 18.13629532 62.03514099 C18.13882195 64.36265494 18.13498113 66.69007148 18.12939453 69.01757812 C18.13141876 69.71371719 18.13344299 70.40985626 18.13552856 71.12709045 C18.11426274 75.88573726 18.11426274 75.88573726 17 77 C11.39 77 5.78 77 0 77 C0 51.59 0 26.18 0 0 Z M1 2 C1 26.09 1 50.18 1 75 C5.95 75 10.9 75 16 75 C16 50.91 16 26.82 16 2 C11.05 2 6.1 2 1 2 Z " fill="#0D1B47" transform="translate(575,477)"/>
<path d="M0 0 C2.43385413 2.19527494 3.73576939 4.19979841 5.04296875 7.1953125 C5.39423828 7.99324219 5.74550781 8.79117187 6.10742188 9.61328125 C6.64206055 10.85658203 6.64206055 10.85658203 7.1875 12.125 C7.55552734 12.96160156 7.92355469 13.79820312 8.30273438 14.66015625 C11 20.83534323 11 20.83534323 11 22 C4.4 22 -2.2 22 -9 22 C-7.09788915 16.29366744 -5.34492182 11.28372385 -2.8125 5.9375 C-2.28269531 4.81214844 -1.75289062 3.68679688 -1.20703125 2.52734375 C-0.80871094 1.69332031 -0.41039062 0.85929687 0 0 Z " fill="#F6F9FB" transform="translate(644,501)"/>
<path d="M0 0 C0.33 0 0.66 0 1 0 C1 19.14 1 38.28 1 58 C6.28 58 11.56 58 17 58 C16.505 55.525 16.505 55.525 16 53 C15.91782064 50.13043806 15.88344726 47.28660347 15.90234375 44.41796875 C15.9037587 43.60378983 15.90517365 42.7896109 15.90663147 41.95075989 C15.91220683 39.36296844 15.92475476 36.77526508 15.9375 34.1875 C15.94251819 32.42773563 15.94708054 30.66796989 15.95117188 28.90820312 C15.96216819 24.60543506 15.97941579 20.30273244 16 16 C16.33 16 16.66 16 17 16 C17.33 23.92 17.66 31.84 18 40 C18.33 40 18.66 40 19 40 C19.02888514 43.14581423 19.04675923 46.29159469 19.0625 49.4375 C19.07087891 50.33533203 19.07925781 51.23316406 19.08789062 52.15820312 C19.09272461 53.43920898 19.09272461 53.43920898 19.09765625 54.74609375 C19.10289307 55.53685303 19.10812988 56.3276123 19.11352539 57.14233398 C19 59 19 59 18 60 C15.17743509 60.10007008 12.3847681 60.13875598 9.5625 60.125 C8.77294922 60.12886719 7.98339844 60.13273438 7.16992188 60.13671875 C1.25326133 60.12663067 1.25326133 60.12663067 -1 59 C-1.02314716 51.60267133 -1.04092723 44.20535045 -1.05181217 36.80799294 C-1.05703579 33.37328438 -1.06412401 29.93860057 -1.07543945 26.50390625 C-1.08836035 22.55729465 -1.09323252 18.61069316 -1.09765625 14.6640625 C-1.10281754 13.42757965 -1.10797882 12.1910968 -1.11329651 10.91714478 C-1.11337204 9.77611298 -1.11344757 8.63508118 -1.11352539 7.45947266 C-1.115746 6.451315 -1.11796661 5.44315735 -1.12025452 4.40444946 C-1 2 -1 2 0 0 Z " fill="#23325E" transform="translate(695,494)"/>
<path d="M0 0 C0.33 0 0.66 0 1 0 C1.29023834 5.40337336 1.5747818 10.8070089 1.85449219 16.2109375 C1.95000701 18.04174503 2.04696503 19.87247795 2.14550781 21.703125 C2.76077113 33.15455645 3.10718574 44.53112625 3 56 C8.28 56 13.56 56 19 56 C19 53.03 19 50.06 19 47 C19.33 47 19.66 47 20 47 C20 50.63 20 54.26 20 58 C17.02077407 58.02683987 14.04178705 58.04676037 11.0625 58.0625 C10.21236328 58.07087891 9.36222656 58.07925781 8.48632812 58.08789062 C7.67744141 58.09111328 6.86855469 58.09433594 6.03515625 58.09765625 C5.2862915 58.10289307 4.53742676 58.10812988 3.76586914 58.11352539 C2 58 2 58 1 57 C0.73924404 54.59525061 0.56388985 52.22636453 0.4375 49.8125 C0.3950415 49.02254639 0.35258301 48.23259277 0.30883789 47.41870117 C-0.40045496 31.6358648 -0.07865218 15.79456715 0 0 Z " fill="#0E1B46" transform="translate(323,496)"/>
<path d="M0 0 C0.79921875 0.01804687 1.5984375 0.03609375 2.421875 0.0546875 C3.02515625 0.07789063 3.6284375 0.10109375 4.25 0.125 C5.74732367 3.11964733 5.3226552 5.80649235 5.27172852 9.14501953 C5.26212097 9.86707581 5.25251343 10.58913208 5.24261475 11.33306885 C5.20957805 13.72474782 5.16926365 16.11624677 5.12890625 18.5078125 C5.10460969 20.16404583 5.0807659 21.82028586 5.05735779 23.47653198 C4.99447066 27.83973816 4.92541716 32.20282601 4.85510254 36.56591797 C4.78446085 41.01654666 4.71961898 45.46725937 4.65429688 49.91796875 C4.52522486 58.65374064 4.38910621 67.38938212 4.25 76.125 C-1.03 76.125 -6.31 76.125 -11.75 76.125 C-11.75 73.485 -11.75 70.845 -11.75 68.125 C-11.42 68.125 -11.09 68.125 -10.75 68.125 C-10.75 70.435 -10.75 72.745 -10.75 75.125 C-6.13 75.125 -1.51 75.125 3.25 75.125 C3.25 51.035 3.25 26.945 3.25 2.125 C-0.71 2.125 -4.67 2.125 -8.75 2.125 C-5.00631258 0.25315629 -3.9099209 -0.11499767 0 0 Z " fill="#102458" transform="translate(798.75,475.875)"/>
<path d="M0 0 C0.33 1.32 0.66 2.64 1 4 C-0.984375 6.5078125 -0.984375 6.5078125 -3.75 9.125 C-4.65234375 9.99382812 -5.5546875 10.86265625 -6.484375 11.7578125 C-9 14 -9 14 -12 16 C-12.6496875 17.2065625 -12.6496875 17.2065625 -13.3125 18.4375 C-15.42328249 21.6427623 -17.61183417 22.30591709 -21 24 C-22.03013277 25.64821244 -23.03114628 27.31503702 -24 29 C-26.5625 30.875 -26.5625 30.875 -29 32 C-29.66 31.67 -30.32 31.34 -31 31 C-20.77 20.77 -10.54 10.54 0 0 Z " fill="#1C4096" transform="translate(185,449)"/>
<path d="M0 0 C3.54433654 1.41773462 4.33806119 2.67612238 6 6 C8.0335948 7.26804566 8.0335948 7.26804566 10 8 C10 8.66 10 9.32 10 10 C10.99 10.33 11.98 10.66 13 11 C13 11.66 13 12.32 13 13 C13.99 13 14.98 13 16 13 C16.33 13.99 16.66 14.98 17 16 C18.32848691 17.00642948 19.66150329 18.00692179 21 19 C21 19.66 21 20.32 21 21 C21.66 21 22.32 21 23 21 C25.5765427 23.37313144 27.84443183 25.80067829 30 28.5625 C31.96023318 31.12561732 31.96023318 31.12561732 34.75 33.1875 C35.4925 33.785625 36.235 34.38375 37 35 C37 35.66 37 36.32 37 37 C37.66 37 38.32 37 39 37 C38.67 37.99 38.34 38.98 38 40 C32.58126115 34.63181251 27.17025351 29.25592414 21.76464844 23.87451172 C19.92333894 22.04328357 18.08024169 20.21385123 16.23535156 18.38623047 C13.58971926 15.76475271 10.95050303 13.13696465 8.3125 10.5078125 C7.48129639 9.68693146 6.65009277 8.86605042 5.79370117 8.02029419 C4.65251831 6.87933792 4.65251831 6.87933792 3.48828125 5.71533203 C2.81321533 5.04470734 2.13814941 4.37408264 1.44262695 3.68313599 C0 2 0 2 0 0 Z " fill="#1E3A8B" transform="translate(135,521)"/>
<path d="M0 0 C7.17659511 1.05054214 13.24834617 5.62856523 18 11 C16.53657956 14.52942577 14.65907491 16.44023431 11.6875 18.8125 C10.92824219 19.43769531 10.16898438 20.06289063 9.38671875 20.70703125 C7 22 7 22 4.4765625 21.859375 C1.93265034 20.97662946 -0.0693906 19.92023333 -2.3125 18.4375 C-3.00988281 17.98246094 -3.70726562 17.52742188 -4.42578125 17.05859375 C-4.94527344 16.70925781 -5.46476563 16.35992187 -6 16 C-5.34 15.67 -4.68 15.34 -4 15 C-1.6171875 16.21484375 -1.6171875 16.21484375 1.125 17.9375 C2.03507813 18.50339844 2.94515625 19.06929688 3.8828125 19.65234375 C4.58148437 20.09707031 5.28015625 20.54179687 6 21 C6.33 19.68 6.66 18.36 7 17 C8.32 16.67 9.64 16.34 11 16 C11.33 13.36 11.66 10.72 12 8 C11.30132813 7.59007812 10.60265625 7.18015625 9.8828125 6.7578125 C8.97273437 6.21898437 8.06265625 5.68015625 7.125 5.125 C6.22007812 4.59132813 5.31515625 4.05765625 4.3828125 3.5078125 C2 2 2 2 0 0 Z " fill="#091743" transform="translate(874,478)"/>
<path d="M0 0 C1.18613892 0.00785522 1.18613892 0.00785522 2.39624023 0.01586914 C3.67724609 0.02070313 3.67724609 0.02070313 4.98413086 0.02563477 C5.88196289 0.03401367 6.77979492 0.04239258 7.70483398 0.05102539 C8.6065332 0.05553711 9.50823242 0.06004883 10.43725586 0.06469727 C12.67234712 0.07652315 14.90730835 0.09300319 17.14233398 0.11352539 C17.14233398 1.43352539 17.14233398 2.75352539 17.14233398 4.11352539 C16.48233398 4.11352539 15.82233398 4.11352539 15.14233398 4.11352539 C15.14233398 3.45352539 15.14233398 2.79352539 15.14233398 2.11352539 C9.86233398 2.11352539 4.58233398 2.11352539 -0.85766602 2.11352539 C-0.84606445 3.25950195 -0.83446289 4.40547852 -0.82250977 5.58618164 C-0.81312359 7.11612792 -0.80402428 8.64607597 -0.79516602 10.17602539 C-0.78678711 10.92819336 -0.7784082 11.68036133 -0.76977539 12.45532227 C-0.7495826 17.11985657 -1.08170643 21.51275712 -1.85766602 26.11352539 C-2.18766602 26.11352539 -2.51766602 26.11352539 -2.85766602 26.11352539 C-2.88653353 21.96770652 -2.90441929 17.82191323 -2.92016602 13.67602539 C-2.92854492 12.49202148 -2.93692383 11.30801758 -2.94555664 10.08813477 C-2.9487793 8.96342773 -2.95200195 7.8387207 -2.95532227 6.67993164 C-2.96055908 5.63780518 -2.9657959 4.59567871 -2.97119141 3.52197266 C-2.81328241 0.17192487 -2.81328241 0.17192487 0 0 Z " fill="#374267" transform="translate(324.857666015625,476.886474609375)"/>
<path d="M0 0 C0.66 0.33 1.32 0.66 2 1 C-6.47049823 6.98613423 -14.19829757 9.24242821 -24.5 9.3125 C-25.20705078 9.31805908 -25.91410156 9.32361816 -26.64257812 9.3293457 C-31.74300517 9.25699483 -31.74300517 9.25699483 -34 7 C-28.39 7 -22.78 7 -17 7 C-16.67 6.01 -16.34 5.02 -16 4 C-15.43152344 4.04640625 -14.86304688 4.0928125 -14.27734375 4.140625 C-8.15642091 4.42674493 -5.13505828 3.24871034 0 0 Z " fill="#0C1C47" transform="translate(459,546)"/>
<path d="M0 0 C2.7885289 -0.22107787 5.34653181 -0.28107535 8.125 -0.1875 C8.87910156 -0.17396484 9.63320313 -0.16042969 10.41015625 -0.14648438 C12.27374127 -0.11109985 14.13695978 -0.05729167 16 0 C17.35015859 4.05047576 16.62084998 6.7920168 16 11 C15.67 11 15.34 11 15 11 C15 8.36 15 5.72 15 3 C8.565 3.495 8.565 3.495 2 4 C1.67 4.99 1.34 5.98 1 7 C0.34 7 -0.32 7 -1 7 C-1.625 5.1875 -1.625 5.1875 -2 3 C-1.34 2.01 -0.68 1.02 0 0 Z " fill="#192A57" transform="translate(751,477)"/>
<path d="M0 0 C6.52963423 0.43530895 12.54306984 2.32457161 18 6 C20.02346382 8.84502056 21.09946215 11.6439956 22 15 C22.18949219 15.63679688 22.37898437 16.27359375 22.57421875 16.9296875 C23.10352435 19.50337526 23.16963146 21.93582432 23.1875 24.5625 C23.20167969 25.51253906 23.21585938 26.46257813 23.23046875 27.44140625 C23 30 23 30 21 33 C20.98582031 31.865625 20.97164062 30.73125 20.95703125 29.5625 C20.89568197 17.78185124 20.89568197 17.78185124 15 8 C10.50643119 4.22131713 5.54967663 2.62790515 0 1 C0 0.67 0 0.34 0 0 Z " fill="#17224C" transform="translate(521,492)"/>
<path d="M0 0 C0.44859375 0.65484375 0.8971875 1.3096875 1.359375 1.984375 C5.41158248 5.07748012 9.3039562 4.43010804 14.25 4.25 C15.65378906 4.22292969 15.65378906 4.22292969 17.0859375 4.1953125 C19.39167015 4.14825673 21.69530945 4.08253713 24 4 C24.33 3.34 24.66 2.68 25 2 C27 4 27 4 27 7 C23.25040783 7.14528105 19.50153895 7.23406281 15.75 7.3125 C14.68652344 7.35439453 13.62304688 7.39628906 12.52734375 7.43945312 C4.64337749 7.56341486 4.64337749 7.56341486 1.265625 4.60546875 C0 2 0 2 0 0 Z " fill="#1A2751" transform="translate(369,547)"/>
<path d="M0 0 C0.33 1.32 0.66 2.64 1 4 C-2.75 7 -2.75 7 -5 7 C-5.33 7.99 -5.66 8.98 -6 10 C-6.66 10 -7.32 10 -8 10 C-8 10.66 -8 11.32 -8 12 C-8.99 12.495 -8.99 12.495 -10 13 C-10.33 13.66 -10.66 14.32 -11 15 C-11.66 15.66 -12.32 16.32 -13 17 C-15.125 16.625 -15.125 16.625 -17 16 C-14.73328976 13.70422364 -12.46093591 11.41411478 -10.1875 9.125 C-9.22360352 8.14853516 -9.22360352 8.14853516 -8.24023438 7.15234375 C-7.61826172 6.52714844 -6.99628906 5.90195312 -6.35546875 5.2578125 C-5.78465576 4.6817627 -5.21384277 4.10571289 -4.62573242 3.51220703 C-3 2 -3 2 0 0 Z " fill="#123892" transform="translate(203,432)"/>
<path d="M0 0 C0.24609375 2.30859375 0.24609375 2.30859375 0 5 C-1.71484375 6.66015625 -1.71484375 6.66015625 -3.9375 8.0625 C-7.11295521 9.99637896 -7.11295521 9.99637896 -8.75390625 13.18359375 C-8.87572266 14.08271484 -8.87572266 14.08271484 -9 15 C-11.31 15.33 -13.62 15.66 -16 16 C-2.72340426 0 -2.72340426 0 0 0 Z " fill="#F4CD25" transform="translate(253,488)"/>
<path d="M0 0 C4.44595063 4.44595063 3.05543145 13.72871452 3.0625 19.6875 C3.04674879 21.45838583 3.02781263 23.22926253 3 25 C2.34 25.33 1.68 25.66 1 26 C-0.15664737 20.51730931 -0.11416255 15.19660726 -0.0625 9.625 C-0.05798828 8.69816406 -0.05347656 7.77132813 -0.04882812 6.81640625 C-0.03711574 4.54420291 -0.02071372 2.27213612 0 0 Z " fill="#081947" transform="translate(749,482)"/>
<path d="M0 0 C0.33 0.66 0.66 1.32 1 2 C0.67 2.66 0.34 3.32 0 4 C6.6 4 13.2 4 20 4 C20.33 3.34 20.66 2.68 21 2 C21 3.32 21 4.64 21 6 C18.09330538 6.85305168 15.68951127 7.07289715 12.671875 6.87890625 C11.87265625 6.83056641 11.0734375 6.78222656 10.25 6.73242188 C9.425 6.67634766 8.6 6.62027344 7.75 6.5625 C6.90953125 6.51029297 6.0690625 6.45808594 5.203125 6.40429688 C3.1350648 6.27504311 1.0674778 6.13825726 -1 6 C-1.33 5.01 -1.66 4.02 -2 3 C-1.34 2.01 -0.68 1.02 0 0 Z " fill="#021444" transform="translate(635,519)"/>
<path d="M0 0 C0 3 0 3 -1.390625 4.68359375 C-2.00421875 5.26238281 -2.6178125 5.84117187 -3.25 6.4375 C-4.20326172 7.35015625 -4.20326172 7.35015625 -5.17578125 8.28125 C-5.77777344 8.8484375 -6.37976563 9.415625 -7 10 C-7.804375 10.804375 -8.60875 11.60875 -9.4375 12.4375 C-9.953125 12.953125 -10.46875 13.46875 -11 14 C-11.66 11.03 -12.32 8.06 -13 5 C-11.35 4.67 -9.7 4.34 -8 4 C-8 4.66 -8 5.32 -8 6 C-3.77895001 3.27809315 -3.77895001 3.27809315 0 0 Z " fill="#061D4E" transform="translate(375,493)"/>
<path d="M0 0 C1.38294718 0.01329757 2.76582404 0.03715018 4.1484375 0.0703125 C4.85484375 0.07933594 5.56125 0.08835937 6.2890625 0.09765625 C8.03399848 0.12123647 9.77876045 0.15710789 11.5234375 0.1953125 C11.5234375 0.5253125 11.5234375 0.8553125 11.5234375 1.1953125 C5.5834375 1.6903125 5.5834375 1.6903125 -0.4765625 2.1953125 C-0.8065625 3.1853125 -1.1365625 4.1753125 -1.4765625 5.1953125 C-2.4665625 5.1953125 -3.4565625 5.1953125 -4.4765625 5.1953125 C-5.7965625 7.8353125 -7.1165625 10.4753125 -8.4765625 13.1953125 C-9.4765625 10.1953125 -9.4765625 10.1953125 -8.76953125 8.22265625 C-8.40472656 7.53300781 -8.03992188 6.84335937 -7.6640625 6.1328125 C-7.30699219 5.44058594 -6.94992187 4.74835938 -6.58203125 4.03515625 C-4.59951737 0.73563668 -3.96745336 0.22289064 0 0 Z " fill="#06143F" transform="translate(640.4765625,476.8046875)"/>
<path d="M0 0 C4.8713029 0.91911375 7.1596824 3.96847781 10.3125 7.625 C8.3325 8.615 8.3325 8.615 6.3125 9.625 C5.6525 8.965 4.9925 8.305 4.3125 7.625 C4.3125 6.305 4.3125 4.985 4.3125 3.625 C1.3425 3.625 -1.6275 3.625 -4.6875 3.625 C-2.6875 0.625 -2.6875 0.625 0 0 Z " fill="#F3CC22" transform="translate(260.6875,481.375)"/>
<path d="M0 0 C1.1055189 0.93590504 2.20935453 1.87379858 3.3125 2.8125 C3.92738281 3.33457031 4.54226562 3.85664062 5.17578125 4.39453125 C7 6 7 6 8.46875 7.6875 C10.46999221 9.40285047 11.59348001 9.31507475 14.1875 9.1875 C15.445625 9.125625 16.70375 9.06375 18 9 C17.01 10.485 17.01 10.485 16 12 C12.96423182 12.55195785 10.95424786 12.58291159 8.2734375 10.9453125 C6.625 9.625 6.625 9.625 4 7 C4 6.34 4 5.68 4 5 C3.01 5 2.02 5 1 5 C0.67 3.35 0.34 1.7 0 0 Z " fill="#FEFAC9" transform="translate(235,541)"/>
<path d="M0 0 C0 4.07974553 -0.62091565 5.58101203 -3.375 8.625 C-6 11 -6 11 -9 12 C-8.67 14.31 -8.34 16.62 -8 19 C-8.66 18.67 -9.32 18.34 -10 18 C-10.55658061 14.18344724 -10.75520078 12.11250008 -8.546875 8.859375 C-6.7590121 6.83112718 -4.92599402 4.89712473 -3 3 C-2.42894531 2.42765625 -1.85789063 1.8553125 -1.26953125 1.265625 C-0.85058594 0.84796875 -0.43164062 0.4303125 0 0 Z " fill="#072A84" transform="translate(138,497)"/>
<path d="M0 0 C1.485 0.99 1.485 0.99 3 2 C3.3984375 4.6796875 3.3984375 4.6796875 3.375 7.875 C3.38273438 8.92429687 3.39046875 9.97359375 3.3984375 11.0546875 C3 14 3 14 0 18 C0 12.06 0 6.12 0 0 Z " fill="#DDE3ED" transform="translate(768,482)"/>
<path d="M0 0 C0.33 0.66 0.66 1.32 1 2 C-3.59617002 6.72748916 -7.67420593 10.83115632 -14 13 C-9.89962427 7.75027653 -5.47035213 3.79037089 0 0 Z " fill="#03153E" transform="translate(414,480)"/>
<path d="M0 0 C0 4.18945771 -2.3085096 6.06516937 -5 9 C-5.825 9.9075 -6.65 10.815 -7.5 11.75 C-9.96644523 13.96980071 -11.86121449 15.01352456 -15 16 C-14.67 15.34 -14.34 14.68 -14 14 C-13.34 14 -12.68 14 -12 14 C-11.66355469 13.17242188 -11.66355469 13.17242188 -11.3203125 12.328125 C-9.59614817 9.28788256 -7.37484178 7.18574327 -4.875 4.75 C-3.96492188 3.85796875 -3.05484375 2.9659375 -2.1171875 2.046875 C-1.41851562 1.37140625 -0.71984375 0.6959375 0 0 Z " fill="#FEFCD0" transform="translate(278,524)"/>
<path d="M0 0 C0.66 0.33 1.32 0.66 2 1 C1 4 1 4 -1.36328125 5.421875 C-2.33652344 5.86015625 -3.30976562 6.2984375 -4.3125 6.75 C-5.76076172 7.42289063 -5.76076172 7.42289063 -7.23828125 8.109375 C-10.08944404 9.02884475 -11.25840627 9.06798426 -14 8 C-12.98679687 7.51080078 -12.98679687 7.51080078 -11.953125 7.01171875 C-11.06109375 6.57472656 -10.1690625 6.13773438 -9.25 5.6875 C-8.36828125 5.25824219 -7.4865625 4.82898438 -6.578125 4.38671875 C-4.18399785 3.09896854 -2.12223042 1.69084246 0 0 Z " fill="#0A1846" transform="translate(877,529)"/>
<path d="M0 0 C0 4.08851166 -1.56385103 6.76565888 -4 10 C-6.56419436 11.16554289 -8.14932886 11 -11 11 C-7.37 7.37 -3.74 3.74 0 0 Z " fill="#F1CE2F" transform="translate(232,508)"/>
<path d="M0 0 C0.66 0 1.32 0 2 0 C2.33 1.32 2.66 2.64 3 4 C4.32 4.33 5.64 4.66 7 5 C6.34 6.65 5.68 8.3 5 10 C4.01 9.67 3.02 9.34 2 9 C1.26953125 6.93359375 1.26953125 6.93359375 0.8125 4.4375 C0.65394531 3.61121094 0.49539063 2.78492188 0.33203125 1.93359375 C0.16767578 0.97646484 0.16767578 0.97646484 0 0 Z " fill="#0F2351" transform="translate(817,522)"/>
<path d="M0 0 C0.66 0.33 1.32 0.66 2 1 C2.625 4.0625 2.625 4.0625 3 7 C1.02 8.32 -0.96 9.64 -3 11 C-3.66 10.67 -4.32 10.34 -5 10 C-4.360625 9.278125 -3.72125 8.55625 -3.0625 7.8125 C-1.01326465 5.01808816 -0.38667054 3.38336726 0 0 Z " fill="#FEFCD5" transform="translate(289,508)"/>
<path d="M0 0 C3.06006595 2.04004397 3.77157178 2.69269325 5 6 C5.3125 8.625 5.3125 8.625 5 11 C4.01 11.66 3.02 12.32 2 13 C1.93941406 12.31292969 1.87882813 11.62585938 1.81640625 10.91796875 C1.73261719 10.01691406 1.64882812 9.11585938 1.5625 8.1875 C1.48128906 7.29417969 1.40007812 6.40085937 1.31640625 5.48046875 C1.06510233 2.87256441 1.06510233 2.87256441 0 0 Z " fill="#033698" transform="translate(231,448)"/>
<path d="M0 0 C0.33 0.66 0.66 1.32 1 2 C0 5 0 5 -2 6 C-2.33 6.66 -2.66 7.32 -3 8 C-3.66 8.66 -4.32 9.32 -5 10 C-6.32 9.67 -7.64 9.34 -9 9 C-6.03 6.03 -3.06 3.06 0 0 Z " fill="#1F4092" transform="translate(195,439)"/>
<path d="M0 0 C0.66 0.99 1.32 1.98 2 3 C-2.68493876 5.48887372 -5.9444214 4.85687773 -11 4 C-11 3.67 -11 3.34 -11 3 C-10.37351562 2.86722656 -9.74703125 2.73445312 -9.1015625 2.59765625 C-8.28429687 2.42105469 -7.46703125 2.24445312 -6.625 2.0625 C-5.81289063 1.88847656 -5.00078125 1.71445312 -4.1640625 1.53515625 C-1.970537 1.07669307 -1.970537 1.07669307 0 0 Z " fill="#1B2A58" transform="translate(534,533)"/>
<path d="M0 0 C2.64465038 3.1254959 3.84414715 6.08788267 5 10 C6.65 10.33 8.3 10.66 10 11 C10 11.99 10 12.98 10 14 C7.43113225 13.62754156 6.27871603 13.32153763 4.55078125 11.328125 C0.41062237 4.37997192 0.41062237 4.37997192 0 0 Z " fill="#081541" transform="translate(395,526)"/>
<path d="M0 0 C0.33 0.66 0.66 1.32 1 2 C1.66 2.33 2.32 2.66 3 3 C0.69 4.98 -1.62 6.96 -4 9 C-4.66 8.67 -5.32 8.34 -6 8 C-2.25 2.25 -2.25 2.25 0 0 Z " fill="#033395" transform="translate(143,492)"/>
<path d="M0 0 C1.9375 0.8125 1.9375 0.8125 4 2 C4.33 2.99 4.66 3.98 5 5 C5.99 5 6.98 5 8 5 C8.33 7.31 8.66 9.62 9 12 C5.74483572 8.83525695 2.67991207 5.67247209 0 2 C0 1.34 0 0.68 0 0 Z " fill="#0A1946" transform="translate(731,526)"/>
<path d="M0 0 C0.99 0.33 1.98 0.66 3 1 C2.67 1.33 2.34 1.66 2 2 C1.58132401 5.00051129 1.435261 7.12524693 3.1171875 9.73046875 C4.35522549 11.20282466 5.67331961 12.60698559 7 14 C4.03 13.505 4.03 13.505 1 13 C0.1276588 10.00519083 -0.10829766 7.36424089 -0.0625 4.25 C-0.05347656 3.45078125 -0.04445312 2.6515625 -0.03515625 1.828125 C-0.02355469 1.22484375 -0.01195312 0.6215625 0 0 Z " fill="#FFF9C6" transform="translate(219,518)"/>
<path d="M0 0 C1.65 0 3.3 0 5 0 C5 0.99 5 1.98 5 3 C5.66 3 6.32 3 7 3 C7.12375 3.639375 7.2475 4.27875 7.375 4.9375 C7.684375 5.9584375 7.684375 5.9584375 8 7 C8.66 7.33 9.32 7.66 10 8 C9.34 8.66 8.68 9.32 8 10 C6.85157077 8.71064081 5.70633773 7.41843421 4.5625 6.125 C3.92441406 5.40570313 3.28632813 4.68640625 2.62890625 3.9453125 C1 2 1 2 0 0 Z " fill="#FEF9C3" transform="translate(280,498)"/>
<path d="M0 0 C2.375 0.1875 2.375 0.1875 5 1 C6.3125 3.5625 6.3125 3.5625 7 6 C5.02 6.99 5.02 6.99 3 8 C2.01 5.36 1.02 2.72 0 0 Z " fill="#0F2257" transform="translate(664,544)"/>
<path d="M0 0 C0.66 0 1.32 0 2 0 C1.49890042 4.38462134 0.01704885 6.8000997 -3 10 C-3.66 10 -4.32 10 -5 10 C-5.33 8.68 -5.66 7.36 -6 6 C-5.195625 5.7525 -4.39125 5.505 -3.5625 5.25 C-0.828919 4.27761141 -0.828919 4.27761141 -0.1875 1.875 C-0.125625 1.25625 -0.06375 0.6375 0 0 Z " fill="#081A48" transform="translate(469,533)"/>
<path d="M0 0 C1.58971965 2.38457948 2.86741593 4.6304124 4.125 7.1875 C4.47820312 7.90292969 4.83140625 8.61835937 5.1953125 9.35546875 C5.46085937 9.89816406 5.72640625 10.44085937 6 11 C4.68 10.34 3.36 9.68 2 9 C2 8.34 2 7.68 2 7 C1.34 7 0.68 7 0 7 C-0.93423645 3.98968256 -1.04449911 3.13349732 0 0 Z " fill="#0A1B47" transform="translate(411,519)"/>
<path d="M0 0 C1.32 0.66 2.64 1.32 4 2 C1.42215154 4.64752004 -0.91648098 6.94432065 -4 9 C-4 7.68 -4 6.36 -4 5 C-2.68 5 -1.36 5 0 5 C0 3.35 0 1.7 0 0 Z " fill="#F6CD32" transform="translate(265,532)"/>
<path d="M0 0 C2.83374881 3.20336822 3.5205537 5.78087253 4 10 C3.01 9.67 2.02 9.34 1 9 C0.67 6.03 0.34 3.06 0 0 Z " fill="#091842" transform="translate(683,541)"/>
<path d="M0 0 C0.33 0.66 0.66 1.32 1 2 C-3.75 6.875 -3.75 6.875 -6 8 C-5.8125 5.6875 -5.8125 5.6875 -5 3 C-2.4375 1.1875 -2.4375 1.1875 0 0 Z " fill="#071B4B" transform="translate(414,480)"/>
<path d="M0 0 C0.556875 0.28875 1.11375 0.5775 1.6875 0.875 C4.08494645 2.0413253 6.51596939 3.0339881 9 4 C8.67 4.66 8.34 5.32 8 6 C4.08597051 4.73058503 2.20927127 3.48832306 0 0 Z " fill="#091944" transform="translate(829,543)"/>
<path d="M0 0 C0.66 0.33 1.32 0.66 2 1 C1.01 2.485 1.01 2.485 0 4 C-0.66 4 -1.32 4 -2 4 C-2.66 5.32 -3.32 6.64 -4 8 C-4.33 6.68 -4.66 5.36 -5 4 C-3.35 2.68 -1.7 1.36 0 0 Z " fill="#D4E3F1" transform="translate(145,487)"/>
<path d="M0 0 C-0.33 1.32 -0.66 2.64 -1 4 C-2.32 4.33 -3.64 4.66 -5 5 C-5 4.01 -5 3.02 -5 2 C-2 0 -2 0 0 0 Z " fill="#08194B" transform="translate(840,479)"/>
<path d="M0 0 C0.66 0.33 1.32 0.66 2 1 C1.75 3.375 1.75 3.375 1 6 C-1.0625 7.3125 -1.0625 7.3125 -3 8 C-1.125 2.25 -1.125 2.25 0 0 Z " fill="#0F1D48" transform="translate(456,523)"/>
<path d="M0 0 C0 0.33 0 0.66 0 1 C-1.258125 1.28875 -2.51625 1.5775 -3.8125 1.875 C-6.8539399 2.57303539 -8.30669878 3.20446585 -11 5 C-10.6875 3.0625 -10.6875 3.0625 -10 1 C-6.52674819 -0.1577506 -3.63932552 -0.06866652 0 0 Z " fill="#C4D5EB" transform="translate(212,429)"/>
</svg>
