<?xml version="1.0" standalone="no"?>
<!DOCTYPE svg PUBLIC "-//W3C//DTD SVG 20010904//EN"
 "http://www.w3.org/TR/2001/REC-SVG-20010904/DTD/svg10.dtd">
<svg version="1.0" xmlns="http://www.w3.org/2000/svg"
 width="300.000000pt" height="148.000000pt" viewBox="0 0 300.000000 148.000000"
 preserveAspectRatio="xMidYMid meet">
<metadata>
Created by potrace 1.10, written by Peter Selinger 2001-2011
</metadata>
<g transform="translate(0.000000,148.000000) scale(0.100000,-0.100000)"
fill="#000000" stroke="none">
<path d="M1796 1249 c-17 -14 -28 -34 -33 -62 -4 -26 -17 -52 -34 -69 l-27
-28 -385 0 -385 0 -26 -31 -26 -31 0 -194 c0 -270 3 -274 189 -274 94 0 112
-3 135 -21 25 -20 26 -24 26 -128 0 -60 5 -122 11 -140 22 -63 4 -61 699 -61
667 0 677 1 694 45 3 9 6 190 6 401 l0 385 -23 23 c-13 12 -41 26 -64 29 -49
8 -83 45 -83 89 0 19 -10 40 -29 59 l-29 29 -295 0 c-283 0 -295 -1 -321 -21z
m598 -29 c19 -7 28 -21 37 -55 14 -54 60 -99 118 -115 21 -5 42 -17 45 -26 3
-9 6 -179 6 -379 l0 -364 -22 -15 c-20 -14 -97 -16 -639 -16 -592 0 -618 1
-640 19 -22 18 -24 28 -29 141 l-5 122 -37 34 -38 34 -110 0 c-104 0 -112 1
-135 25 -25 24 -25 27 -25 197 0 119 4 181 13 198 l13 25 386 5 387 5 35 34
c21 20 38 50 45 77 8 31 19 48 34 54 30 12 529 12 561 0z"/>
</g>
</svg>
