<?xml version="1.0" standalone="no"?>
<!DOCTYPE svg PUBLIC "-//W3C//DTD SVG 20010904//EN"
 "http://www.w3.org/TR/2001/REC-SVG-20010904/DTD/svg10.dtd">
<svg version="1.0" xmlns="http://www.w3.org/2000/svg"
 width="300.000000pt" height="148.000000pt" viewBox="0 0 300.000000 148.000000"
 preserveAspectRatio="xMidYMid meet">
<metadata>
Created by potrace 1.10, written by Peter Selinger 2001-2011
</metadata>
<g transform="translate(0.000000,148.000000) scale(0.100000,-0.100000)"
fill="#000000" stroke="none">
<path d="M735 1065 c-15 -15 -25 -36 -25 -54 0 -45 -41 -87 -91 -94 -23 -3
-51 -15 -63 -27 -20 -19 -21 -33 -24 -229 l-3 -208 26 -32 27 -31 563 0 564 0
26 23 c18 15 28 36 32 65 9 70 34 82 164 82 186 0 189 4 189 274 l0 194 -26
31 -26 31 -654 0 -655 0 -24 -25z m1326 -32 c11 -12 14 -60 14 -205 0 -237 6
-228 -156 -228 -107 0 -109 0 -144 -31 -22 -19 -39 -46 -46 -72 -6 -23 -18
-48 -27 -54 -12 -10 -140 -13 -558 -13 l-543 0 -15 22 c-13 18 -16 56 -16 205
0 170 1 184 20 203 11 11 30 20 43 20 46 0 88 42 112 112 9 26 22 49 28 52 7
2 296 5 643 5 576 1 633 0 645 -16z"/>
</g>
</svg>
